<svg id="Layer_1" data-name="Layer 1" xmlns="http://www.w3.org/2000/svg" xmlns:xlink="http://www.w3.org/1999/xlink" viewBox="0 0 1607.6 812.1"><defs><style>.cls-1{fill:none;}.cls-2{clip-path:url(#clip-path);}</style><clipPath id="clip-path" transform="translate(-12.52 -16.39)"><rect class="cls-1" x="-244.27" y="-536.81" width="1920" height="1920"/></clipPath></defs><g class="cls-2"><path d="M315.27,537c-5,1.7-9.1,3-13.1,4.5-22.8,8.5-45.6,16.9-68.2,25.7-12.4,4.8-24.6,10.2-36.9,15.2-3.5,1.4-5.3,4-6.5,7.4-3.1,9.1-6.2,18.2-9.4,27.2-4.9,13.9-9.8,27.7-14.8,41.5-5.2,14.6-10.4,29.1-15.6,43.7-4.8,13.2-9.7,26.4-14.6,39.6-2.2,5.9-5.4,11-11.2,14.2-9.9,5.4-22.6,3.9-30.2-4.4-8.9-9.7-17.4-19.7-26.1-29.5-7.1-7.9-7.8-16.9-4.6-26.5,4.5-13.7,9.2-27.3,13.9-40.9,1.2-3.4,2.6-6.6,3.8-10,.3-1.3.6-2.7.8-4a17.1,17.1,0,0,0-3,.9c-6.4,3.8-13.2,5.2-20.5,3.2a54.24,54.24,0,0,1-14.8-6.5c-10-6.2-18.1-14.4-26-22.9a22.68,22.68,0,0,1-.9-29.1,23.79,23.79,0,0,1,4.5-3.9,545.15,545.15,0,0,1,47.8-32c9.7-5.7,19.3-11.8,29-17.5,7.5-4.4,15.2-8.4,22.8-12.4a8.82,8.82,0,0,0,4.6-5.4c6.6-20.2,13.3-40.3,19.9-60.4,4.8-14.7,9.5-29.5,14.5-44.1,5.9-17.4,12.2-34.8,18.3-52.2,4.4-12.5,8.7-25.1,13.2-37.6q8.85-24.9,17.9-49.8c3.4-9.3,6.8-18.6,10.5-27.8a52.54,52.54,0,0,1,18.5-23.9c9.8-7,20.9-10.5,32.4-12.9,8-1.6,16-2.3,24-.8a44.23,44.23,0,0,1,10,3.6c4.2,2.1,6.1,6.1,7.3,10.4a25.9,25.9,0,0,1-.3,15.1c-3.8,11.9-7.9,23.8-12,35.7-3.4,9.9-7.1,19.8-10.6,29.7l-13.5,39c-4.4,12.6-8.8,25.1-13.2,37.7-5.5,15.9-11,31.9-16.5,47.8-4.7,13.6-9.5,27.2-14.2,40.8a19.7,19.7,0,0,0-.4,3.4,27.68,27.68,0,0,0,5-1c14.3-5.9,28.9-10.9,43.6-15.8,12.5-4.1,24.9-8.5,37.5-12.4,9.4-3,19-5.5,28.5-8.2,8-2.3,7.9-2.3,10.7-10.4,6-17.6,12.2-35.1,18.2-52.6,5.7-16.5,11.3-33.1,17-49.6,4.8-13.8,9.6-27.5,14.4-41.2,4.1-11.7,8.1-23.4,12.2-35.1s8.5-23.6,12.7-35.4c4.4-12.4,8.6-24.8,13-37.2,4.9-13.9,9.9-27.7,15-41.5a128.72,128.72,0,0,1,6.8-16.2c5.1-9.7,12.6-16.9,22-22.7,9.7-6,20.3-8.9,31.2-11.4a102.87,102.87,0,0,1,20.7-2.6c9.6-.3,18.9,1.3,26.8,7.2,6.3,4.7,9.7,12.8,7.1,21-4.5,14.3-8.7,28.7-13.3,43-6.8,20.9-13.8,41.7-20.8,62.5-5.9,17.6-12,35.1-18.1,52.7-4.1,12-8.3,24-12.4,35.9-5.6,15.9-11.1,31.9-16.7,47.8-6.2,17.5-12.3,35-18.5,52.5-.6,1.8-1.2,3.7-2,5.9,5.3.7,9.8-.6,14.3-1.1,13.8-1.5,27.7-3.3,41.5-4.7,8.8-.9,17.6-1.1,26.4-2.1,7.3-.8,14.2.7,21,2.8,14.8,4.7,29.5,9.5,44.2,14.2,2.8.9,5.6,1.6,8.4,2.6,12.6,4.3,17.8,16.5,14.5,28.4-2.9,10.1-6.7,19.9-10.2,29.8l-10.5,28.8c-4.1,11.5-8.3,23-12.3,34.5-.6,1.6-2,3.2-.7,5.9,1.8-.6,3.7-1,5.5-1.8q31.95-12.75,64.5-23.8c7.3-2.5,14.5-5.2,21.9-7.7,10-3.3,20-6.5,30-9.8,7.9-2.5,8.1-2.5,9.3-10.6,3-19.3,7.1-38.3,12-57.2a577.65,577.65,0,0,1,20.8-65.4c6.2-16.1,13.5-31.9,20.7-47.7,6.8-14.9,13.7-29.8,21.2-44.4,8-15.7,16.3-31.3,25.1-46.6q12.3-21.3,25.8-41.8c7.7-11.7,16.3-22.9,24.6-34.2,4.2-5.7,8.5-11.5,13-16.9,6.8-8,13.7-16,20.9-23.7,7.9-8.4,16.1-16.7,24.5-24.7,4.8-4.6,10-8.8,15.2-12.9,7-5.6,14-11.2,21.4-16.3,7-4.8,14.4-9,21.6-13.5a197.93,197.93,0,0,1,29.6-14.5,160.51,160.51,0,0,1,35.1-10.3c7-1.3,14.1-2.1,21.2-2.7a100.4,100.4,0,0,1,31.8,3.2c23.7,6.4,41.9,20.5,56.5,40,15.6,20.9,24.3,44.7,30.1,69.8a294.93,294.93,0,0,1,7,52.9c.8,17,.9,34-1.1,51-.9,7.4-1.3,14.8-2.1,22.2-.7,6.1-1.4,12.3-2.5,18.4-1.6,9.4-3.3,18.9-5.5,28.2-3.2,13.7-6.3,27.4-10.3,40.9-4.2,14.4-9.3,28.5-14.1,42.7-.5,1.4-.8,2.9-1.4,4.7a13.42,13.42,0,0,0,3.5.4c7.6-1.1,15.3-2.4,22.9-3.5,9.2-1.4,18.4-2.7,27.5-4,4.6-.7,9.2-1.4,13.8-2,16-2,32-3.9,47.9-6,10.9-1.4,21.7-3.4,32.6-4.6,14-1.5,27.9-3.9,42-4.6,12.3-.6,24.6-2.6,37-3.8,17.8-1.8,35.7-3.5,53.6-5,19.9-1.7,39.8-3.1,59.7-4.6,6-.4,12-.7,18.1-.9,4.2-.2,6.3,1.8,6.6,6,.5,6.2-2.4,9.6-8.6,10.2-18.8,1.6-37.6,3.1-56.4,5-25.4,2.6-50.8,5.4-76.1,8.6-14.7,1.9-29.3,4.9-43.9,7.6a33.68,33.68,0,0,0-8,2.5c-1.1.5-2.6,2-2.5,2.9a4.75,4.75,0,0,0,2.6,3.4,17.66,17.66,0,0,0,7.2.9c15.7-1.9,31.3-4.1,47-6,22.4-2.6,44.9-5.2,67.4-7.5,15.9-1.6,31.8-2.7,47.7-3.8,8.5-.6,17-.5,25.5-.9,5.1-.2,10.2-.7,15.2-1.1l.5-.1c10.9-.1,21.9-.7,32.8,0,8.9.6,16,5.6,21,13,1,1.5,1.2,3.5,1.8,5.2a4.94,4.94,0,0,1-2.6,6.3c-2.3,1.2-4.7,2.6-7.2,3-11.5,1.5-23,2.9-34.6,4-12.9,1.3-25.9,2.1-38.8,3.5-22.5,2.4-44.9,5-67.4,7.4-7.4.8-14.8,1.3-22.2,2.2-12.4,1.5-24.9,3.3-37.3,5-11,1.5-22.1,2.9-33.1,4.5-10.1,1.5-20.2,3.2-30.3,4.8s-20.2,2.9-30.3,4.5c-15.3,2.5-30.5,5.2-45.8,7.8-9.3,1.6-18.6,3-27.9,4.7-11.3,2-22.5,4.3-33.7,6.4s-22.5,4.4-33.7,6.7c-9.6,1.9-19.1,4-28.6,6a6.46,6.46,0,0,0-4.6,3.4c-5.8,10.2-12,20.2-17.7,30.5-7.4,13.3-16.3,25.5-25.2,37.8q-13.95,19.35-29.1,37.8a462.67,462.67,0,0,1-35.2,38.9c-5.3,5.2-10.3,10.6-15.8,15.7-4,3.8-8.4,7.3-12.7,10.8-10.3,8.2-20.4,16.6-31,24.4-8,5.9-16.4,11.1-24.8,16.3a250.63,250.63,0,0,1-22.7,12.5,262,262,0,0,1-34,13.6c-12.2,3.9-24.7,5.5-37.3,6.9a23.08,23.08,0,0,1-3.7.3c-18.2.2-35.9-2.3-52.6-9.7a86.91,86.91,0,0,1-28.9-20.6c-12.3-13.3-20.8-28.7-26.4-45.9a199.72,199.72,0,0,1-9.5-47.2c-.2-2.1-.7-4.2-1.1-6.8a34.83,34.83,0,0,0-4.4,1c-24,9.1-48.1,18.1-72.1,27.3-13.7,5.3-27.4,10.8-40.9,16.5-15.1,6.4-30,13.3-45.1,19.6-6.4,2.7-12.5,5.9-19.6,6.8-9.7,1.2-17-2.8-22.9-9.6-9.9-11.5-19.5-23.2-29.3-34.8-3.8-4.5-5-9.8-4.8-15.6.1-6.5,2.6-12.4,4.7-18.4,4.1-11.7,8.3-23.3,12.6-34.9,5.2-14.2,10.3-28.5,15.5-42.8,2.7-7.4,5.3-14.8,8.2-23-3.7.3-6.9.5-10,1-9.9,1.5-19.8,3.2-29.7,4.9-7.9,1.4-15.8,2.8-23.8,4.3-9.3,1.8-18.5,3.8-27.7,5.7a29.67,29.67,0,0,1-4.1.8c-2.8.3-4.2,1.9-5.2,4.6-4.4,12.7-9,25.4-13.5,38-5.7,15.7-11.5,31.4-17.1,47.1-6.8,19-13.4,38-20.1,56.9-4.1,11.7-8.5,23.2-12.6,34.9-5.4,14.7-10.5,29.4-15.8,44.1-3.8,10.8-7.8,21.5-11.6,32.3l-17.4,49.5c-2.5,7.1-6.4,13-13.4,16.5-9.3,4.7-24.8,2.3-30.6-4.8-8.6-10.6-17.6-20.8-26.4-31.2-2.8-3.3-5.4-6.8-8.4-9.9-8.9-8.8-10-19.4-6.3-30.5,8.5-25.7,17.3-51.3,26.1-76.9,7.5-21.7,15-43.3,22.7-64.8,7.9-22.3,16-44.6,23.9-66.9a14.63,14.63,0,0,1,.4-4.1m519.6-69.8,1.1.7c2.3-.8,4.6-1.7,7-2.3,12.5-3.3,25.1-6.6,37.7-9.9,13.6-3.5,27.2-7,40.9-10.5,8.2-2.1,16.4-4.3,24.7-6.3,9.2-2.2,18.4-4,27.6-6.2,8.7-2,17.4-4.3,26.2-6.3,18.4-4.1,36.9-8,55.4-11.9,3.7-.8,6.3-2,7.2-6,.4-2.1,1.6-4,2.4-6,7.5-18.2,15.4-36.2,22.4-54.5,5.8-15.2,10.8-30.6,15.5-46.2,3.5-11.5,5.9-23.4,8.5-35.1a285.94,285.94,0,0,0,6.8-49.6c.9-17.5.4-35-3.8-52.1-2.4-9.7-6.1-18.9-12.3-26.8a40.54,40.54,0,0,0-25.1-15.5,53.82,53.82,0,0,0-22.6.6c-19.6,4.4-35.8,15.2-50.9,27.6-8.1,6.6-15.4,14.4-22.6,22a330.3,330.3,0,0,0-32.7,41c-9.4,13.6-17.9,27.9-26.5,42-4.8,7.9-9.6,15.9-13.7,24.2q-13.65,27.6-26.5,55.7-7.8,16.8-14.4,34.2c-6.7,17.6-12.9,35.4-19.2,53.2-2.2,6.3-4,12.7-6.1,19-.7,2.2-1.9,4.2-2.5,6.3-.9,3.4-1.5,6.9-2.3,10.4-.8,2.8-1.5,5.6-2.2,8.3m174,41.4-.8-.9a12.41,12.41,0,0,0-2.7.3c-17.4,4.8-34.9,9.5-52.3,14.5q-33.75,9.6-67.3,19.7c-20.2,6.1-40.2,12.5-60.3,18.8-3.5,1.1-4.1,1.8-3.9,5.3.8,11.8,2.5,23.4,7.8,34.2,6.6,13.7,17.1,22.1,32.3,24.1,15,2,28.9-2.1,42.2-8.4a121.88,121.88,0,0,0,27.5-18c8.6-7.5,17.5-14.8,25.6-22.8,6.8-6.7,12.8-14.3,19-21.5,3.4-4,6.8-8,9.9-12.3,5.6-7.6,10.9-15.4,16.3-23.2,2.4-3.1,4.5-6.5,6.7-9.8" transform="translate(-12.52 -16.39)"/><path d="M650.27,363c-8.9.1-15.6-4-21.1-10.6s-11.7-13.2-17.2-20.1a66.78,66.78,0,0,1-9-14c-2.8-6.6-1.5-13.7.8-20.4,5.8-17.3,11.6-34.6,17.7-51.9,4.8-13.7,9.7-27.4,15.3-40.8,3.5-8.5,9.6-15.5,17-21.1,13.3-10.2,28.5-15.3,45.1-16.3,6.2-.4,12.4-.3,18.3,2.2,8.1,3.4,13.1,9.3,14.3,18,.7,5.2-1,10.1-2.8,14.9-4.8,12.8-9.6,25.5-14.4,38.2l-18.6,49.5c-5.5,14.5-11,28.9-16.5,43.3-1.9,5-4.1,10-6,15.1-3.5,9.5-10.8,13.4-20.4,14.1a21.75,21.75,0,0,0-2.5-.1" transform="translate(-12.52 -16.39)"/><path d="M547.47,690.46c0-.5-.1-1-.1-1.5l.3-.1c.1.5.3,1,.4,1.5Z" transform="translate(-12.52 -16.39)"/></g></svg>